<svg width="235" height="43" viewBox="0 0 235 43" fill="none" xmlns="http://www.w3.org/2000/svg">
<path fill-rule="evenodd" clip-rule="evenodd" d="M34.6265 14.9732C30.3061 17.663 27.4305 22.4553 27.4305 27.9192V29.4967H41.8228V29.4968H12.2196C11.7365 29.4968 11.3448 29.1052 11.3448 28.6221V27.9193C11.3448 19.5031 18.1676 12.6804 26.5838 12.6804C29.536 12.6804 32.2922 13.5199 34.6265 14.9732Z" fill="#B5F984"/>
<path fill-rule="evenodd" clip-rule="evenodd" d="M34.4675 14.9731C38.7879 17.6629 41.6636 22.4552 41.6636 27.9192V29.4967H27.2713V29.4967H56.8745C57.3576 29.4967 57.7492 29.1051 57.7492 28.622V27.9192C57.7492 19.503 50.9265 12.6803 42.5102 12.6803C39.558 12.6803 36.8019 13.5198 34.4675 14.9731Z" fill="#7AFFE8"/>
<path d="M223.485 26.1363C222.784 28.4971 220.867 29.9229 218.155 29.9229C214.532 29.9229 212.335 27.2115 212.335 23.6586C212.335 20.1758 214.602 17.4176 218.085 17.4176C222.036 17.4176 223.461 20.4329 223.578 23.5884C223.602 23.7521 223.602 23.9624 223.602 24.1494H213.901C214.065 26.8141 215.724 28.5672 218.132 28.5672C219.908 28.5672 221.334 27.7024 221.849 26.1363H223.485ZM213.925 22.8405H221.965C221.732 20.3394 220.516 18.7499 218.085 18.7499C215.724 18.7499 214.158 20.4562 213.925 22.8405Z" fill="white"/>
<path d="M208.854 17.6279H210.491V29.0113C210.491 32.237 208.317 34.3641 205.068 34.3641C202.029 34.3641 199.972 32.8214 199.668 30.2969H201.328C201.608 32.1435 202.894 32.985 205.068 32.985C207.382 32.985 208.854 31.6293 208.854 28.9178V27.2582H208.831C208.2 28.801 206.938 29.9229 204.624 29.9229C201.047 29.9229 199.084 27.118 199.084 23.6586C199.084 20.2225 201.047 17.4176 204.624 17.4176C206.961 17.4176 208.247 18.7032 208.831 19.9654H208.854V17.6279ZM200.72 23.6586C200.72 26.2999 202.076 28.5205 204.811 28.5205C207.919 28.5205 208.924 25.7856 208.924 23.6586C208.924 21.2977 207.522 18.7967 204.811 18.7967C202.122 18.7967 200.72 21.0172 200.72 23.6586Z" fill="white"/>
<path d="M191.302 17.4176C193.569 17.4176 194.995 18.7733 195.58 20.1056H195.603V13.0231H197.239V29.7126H195.603V27.2349H195.58C194.972 28.6373 193.546 29.9229 191.302 29.9229C187.772 29.9229 185.832 27.1881 185.832 23.6586C185.832 20.129 187.772 17.4176 191.302 17.4176ZM187.469 23.6586C187.469 26.4401 188.871 28.5205 191.559 28.5205C194.458 28.5205 195.673 26.0661 195.673 23.6586C195.673 21.0172 194.294 18.7966 191.559 18.7966C188.918 18.7966 187.469 20.877 187.469 23.6586Z" fill="white"/>
<path d="M183.962 15.3606H182.232V13.0231H183.962V15.3606ZM182.209 29.7126V17.6279H183.845V29.7126H182.209Z" fill="white"/>
<path d="M177.076 17.6279V20.0121C177.684 18.3993 178.853 17.5578 180.816 17.5578V19.0771C180.395 19.0771 179.881 19.1706 179.46 19.3576C178.128 19.8018 177.076 20.8302 177.076 23.7053V29.7126H175.44V17.6279H177.076Z" fill="white"/>
<path d="M161.784 29.7126V13.0231H167.488C170.339 13.0231 172.513 14.5425 172.513 17.4409C172.513 19.2875 171.321 20.5264 169.662 21.1107V21.1341C171.625 21.3912 173.214 22.7703 173.214 25.1078C173.214 28.0763 170.994 29.7126 167.605 29.7126H161.784ZM163.491 28.2633H167.745C170.036 28.2633 171.485 27.0245 171.485 25.1078C171.485 23.0742 170.059 21.9055 167.815 21.9055H163.491V28.2633ZM163.491 20.4796H167.067C169.404 20.4796 170.784 19.4278 170.784 17.4409C170.784 15.4073 169.475 14.4724 167.16 14.4724H163.491V20.4796Z" fill="white"/>
<path d="M156.33 17.6279V19.755C157.008 18.1422 158.317 17.511 160 17.4877V20.316C159.837 20.316 158.972 20.316 158.551 20.4796C157.476 20.7367 156.401 21.3211 156.401 24.2663V29.7126H153.385V17.6279H156.33Z" fill="white"/>
<path d="M151.49 26.1596C150.765 28.5672 148.662 30.0866 145.74 30.0866C142.093 30.0866 139.546 27.492 139.546 23.6352C139.546 19.942 142.164 17.2773 145.763 17.2773C149.807 17.2773 151.654 20.3394 151.677 23.9157V24.5H142.421C142.654 26.4401 143.963 27.6556 145.717 27.6556C146.979 27.6556 148.054 27.2115 148.498 26.1596H151.49ZM142.444 22.4898H148.779C148.592 20.9237 147.657 19.568 145.717 19.568C143.917 19.568 142.725 20.7367 142.444 22.4898Z" fill="white"/>
<path d="M120.582 29.7126V17.6279H123.527V19.6148C123.901 18.4694 125.023 17.3007 126.777 17.3007C128.413 17.3007 129.535 18.0019 130.142 19.568C130.82 18.1188 131.755 17.3007 133.508 17.3007C136.547 17.3007 138.043 19.3576 138.043 22.3262V29.7126H135.075V23.0508C135.075 21.2977 134.607 19.9186 133.111 19.9186C131.709 19.9186 130.797 21.4146 130.797 23.939V29.7126H127.899V23.0508C127.899 21.2977 127.595 19.9186 125.935 19.9186C124.065 19.9186 123.598 21.9288 123.598 24.2897V29.7126H120.582Z" fill="white"/>
<path d="M100.848 29.7126V17.6279H103.793V19.6148C104.167 18.4694 105.289 17.3007 107.042 17.3007C108.679 17.3007 109.801 18.0019 110.408 19.568C111.086 18.1188 112.021 17.3007 113.774 17.3007C116.813 17.3007 118.309 19.3576 118.309 22.3262V29.7126H115.34V23.0508C115.34 21.2977 114.873 19.9186 113.377 19.9186C111.974 19.9186 111.063 21.4146 111.063 23.939V29.7126H108.164V23.0508C108.164 21.2977 107.861 19.9186 106.201 19.9186C104.331 19.9186 103.863 21.9288 103.863 24.2897V29.7126H100.848Z" fill="white"/>
<path d="M98.5134 15.8281H95.4046V13.0231H98.5134V15.8281ZM95.3578 29.7126V17.6279H98.3732V29.7126H95.3578Z" fill="white"/>
<path d="M82.175 29.7126V13.0231H85.1202V19.6849C85.798 18.3058 86.8733 17.3007 88.7432 17.3007C91.8754 17.3007 93.0909 19.3576 93.0909 22.3262V29.7126H90.099V23.0508C90.099 21.2977 89.6315 19.9186 87.9018 19.9186C86.2889 19.9186 85.1903 21.3445 85.1903 24.2897V29.7126H82.175Z" fill="white"/>
<path d="M70.492 24.3364C70.6089 26.3934 72.0815 27.5154 74.0917 27.5154C75.9149 27.5154 77.1071 26.744 77.1071 25.1779C77.1071 23.4716 75.6345 23.0742 73.5074 22.4431C70.7492 21.6016 68.0143 20.6666 67.991 17.3474C67.9442 14.1451 70.8894 12.6258 73.9515 12.6258C77.294 12.6258 79.7016 14.1919 80.0522 17.885H76.9201C76.6162 16.0618 75.6812 15.2203 73.8814 15.2203C72.3153 15.2203 71.0764 15.8515 71.0764 17.3942C71.0764 18.7733 72.4321 19.4044 74.5826 20.0355C77.4109 20.8536 80.1925 21.625 80.1925 25.1779C80.1925 28.5906 77.1772 30.1099 74.0917 30.1099C70.4453 30.1099 67.5702 28.2867 67.2897 24.3364H70.492Z" fill="white"/>
</svg>
